<?xml version="1.0" encoding="utf-8"?>
<!-- Generator: Adobe Illustrator 25.4.1, SVG Export Plug-In . SVG Version: 6.00 Build 0)  -->
<svg version="1.1" id="Layer_1" xmlns="http://www.w3.org/2000/svg" xmlns:xlink="http://www.w3.org/1999/xlink" x="0px" y="0px"
	 viewBox="0 0 20 20" style="enable-background:new 0 0 20 20;" xml:space="preserve">
<style type="text/css">
	.st0{fill:#901C1C;}
</style>
<path class="st0" d="M14.5,2c2,0,3.5,1.5,3.5,3.5c0,2.9-3.1,5.7-7.9,10l0,0L10,15.7l-0.1-0.1C4.9,11,1.7,8.1,2,5
	c0.1-0.7,0.4-1.4,0.9-1.9c1.6-1.7,4.2-1.3,5.6,0.3l1.1,1.3C9.7,4.8,9.9,4.9,10,4.9s0.3-0.1,0.4-0.2l1.1-1.3C12.3,2.5,13.4,2,14.5,2
	 M14.5,0c-1.7,0-3.4,0.8-4.5,2.1C8.2,0,5-0.8,2.3,1C0.9,1.9,0.1,3.6,0,5.3c-0.1,3.9,3.3,7,8.5,11.8l1.4,1.3l1.4-1.3
	C16.6,12.4,20,9.3,20,5.5C20,2.4,17.6,0,14.5,0L14.5,0z"/>
</svg>
